<svg width="217" height="40" viewBox="0 0 217 40" fill="none" xmlns="http://www.w3.org/2000/svg">
<path fill-rule="evenodd" clip-rule="evenodd" d="M71.8955 8.84827L78.7815 31.1517H72.7007L71.1736 26.1522H63.2047L61.5388 31.1517H55.458L62.8715 8.84827H71.8955ZM64.7596 21.5414H69.7852L68.5913 17.5418C68.5103 17.2527 68.4246 16.9528 68.3371 16.6465C68.0041 15.4816 67.645 14.2252 67.4251 13.1255C67.1013 14.4752 66.5939 16.0609 66.1578 17.4239C66.1452 17.4634 66.1326 17.5027 66.1201 17.5418L64.7596 21.5414Z" fill="#292929"/>
<path d="M96.4961 31.1516C98.884 31.1516 100.55 29.4851 100.55 27.0964V21.1803C100.55 18.7916 99.1617 17.4029 96.7738 17.4029H86.1116V13.8477H94.8579V15.9586H100.411V12.9033C100.411 10.5147 98.7452 8.84814 96.3573 8.84814H84.6123C82.2244 8.84814 80.5584 10.5147 80.5584 12.9033V18.2084C80.5584 20.597 81.9467 21.9858 84.3346 21.9858H94.9968V26.1521H85.834V23.5967H80.2808V27.0964C80.2808 29.4851 81.9467 31.1516 84.3346 31.1516H96.4961Z" fill="#292929"/>
<path d="M116.21 31.1516V13.8755H123.623V8.87598H103.215V13.8755H110.629V31.1516H116.21Z" fill="#292929"/>
<path fill-rule="evenodd" clip-rule="evenodd" d="M143.171 23.9299L147.613 31.1515H141.088L137.034 24.0966H131.953V31.1515H126.4V8.84802H141.893C144.281 8.84802 145.947 10.5145 145.947 12.9032V20.0414C145.947 21.9857 144.837 23.43 143.171 23.9299ZM131.953 19.097H140.394V13.8475H131.953V19.097Z" fill="#292929"/>
<path fill-rule="evenodd" clip-rule="evenodd" d="M169.66 27.0964C169.66 29.4851 167.994 31.1516 165.606 31.1516H153.444C151.057 31.1516 149.391 29.4851 149.391 27.0964V12.9033C149.391 10.5147 151.057 8.84814 153.444 8.84814H165.606C167.994 8.84814 169.66 10.5147 169.66 12.9033V27.0964ZM154.944 26.152H164.106V13.8476H154.944V26.152Z" fill="#292929"/>
<path d="M193.427 31.1516V8.84814H187.874V23.5412C187.18 22.2358 186.736 21.4303 186.014 20.2082L179.822 8.84814H173.297V31.1516H179.35V17.0418C180.322 18.9305 180.96 20.0971 181.988 22.0136L186.902 31.1516H193.427Z" fill="#292929"/>
<path d="M216.529 31.1516V26.1521H202.618V21.9858H216.085V17.4029H202.618V13.8477H216.529V8.84814H201.119C198.731 8.84814 197.065 10.5147 197.065 12.9033V27.0964C197.065 29.4851 198.731 31.1516 201.119 31.1516H216.529Z" fill="#292929"/>
<path fill-rule="evenodd" clip-rule="evenodd" d="M23.1409 2.29203C20.7608 1.02623 17.8051 1.92987 16.5397 4.31024L2.29383 31.1077C1.02867 33.4876 1.93207 36.4424 4.31174 37.708C6.69192 38.9738 9.64757 38.0701 10.913 35.6898L25.1588 8.89229C26.424 6.51243 25.5206 3.55756 23.1409 2.29203Z" fill="#4100B5"/>
<path fill-rule="evenodd" clip-rule="evenodd" d="M25.1775 4.31026C23.912 1.92988 20.9564 1.02625 18.5762 2.29205C16.1965 3.55757 15.2931 6.51244 16.5583 8.8923L23.9968 22.8846L5.02043 29.1795C2.33808 30.0693 1.01605 33.0856 2.17959 35.661C3.29947 38.1398 6.26439 39.1789 8.68669 37.9415L27.022 28.5752L30.8041 35.6898C32.0696 38.0701 35.0252 38.9738 37.4054 37.708C39.7851 36.4425 40.6885 33.4876 39.4233 31.1077L35.716 24.134L44.8169 19.485C45.6066 19.0816 45.9446 18.1324 45.5877 17.3206C45.2401 16.53 44.3481 16.1336 43.5284 16.4056L33.3945 19.7672L25.1775 4.31026Z" fill="#5833EB"/>
<path fill-rule="evenodd" clip-rule="evenodd" d="M33.6734 25.0079L27.6787 29.81L26.9736 28.4858L33.6734 25.0079Z" fill="#32008B"/>
</svg>
